{
 "asset": {
  "version": "2.0",
  "generator": "kindjal make_meshes.py"
 },
 "scene": 0,
 "scenes": [
  {
   "nodes": [
    0
   ]
  }
 ],
 "nodes": [
  {
   "name": "AcidFlask",
   "mesh": 0
  }
 ],
 "meshes": [
  {
   "name": "AcidFlask",
   "primitives": [
    {
     "attributes": {
      "POSITION": 0,
      "NORMAL": 1,
      "TEXCOORD_0": 2
     },
     "indices": 3,
     "material": 0,
     "mode": 4
    }
   ]
  }
 ],
 "materials": [
  {
   "name": "AcidFlask",
   "pbrMetallicRoughness": {
    "baseColorTexture": {
     "index": 0
    },
    "metallicFactor": 0.0,
    "roughnessFactor": 1.0
   }
  }
 ],
 "textures": [
  {
   "sampler": 0,
   "source": 0
  }
 ],
 "samplers": [
  {
   "magFilter": 9729,
   "minFilter": 9987,
   "wrapS": 10497,
   "wrapT": 10497
  }
 ],
 "images": [
  {
   "uri": "acid_flask.png"
  }
 ],
 "buffers": [
  {
   "uri": "acid_flask.bin",
   "byteLength": 16096
  }
 ],
 "bufferViews": [
  {
   "buffer": 0,
   "byteOffset": 0,
   "byteLength": 4668,
   "target": 34962
  },
  {
   "buffer": 0,
   "byteOffset": 4668,
   "byteLength": 4668,
   "target": 34962
  },
  {
   "buffer": 0,
   "byteOffset": 9336,
   "byteLength": 3112,
   "target": 34962
  },
  {
   "buffer": 0,
   "byteOffset": 12448,
   "byteLength": 3648,
   "target": 34963
  }
 ],
 "accessors": [
  {
   "bufferView": 0,
   "componentType": 5126,
   "count": 389,
   "type": "VEC3",
   "min": [
    -4.5,
    -6.0,
    -4.5
   ],
   "max": [
    4.5,
    6.0,
    4.5
   ]
  },
  {
   "bufferView": 1,
   "componentType": 5126,
   "count": 389,
   "type": "VEC3"
  },
  {
   "bufferView": 2,
   "componentType": 5126,
   "count": 389,
   "type": "VEC2"
  },
  {
   "bufferView": 3,
   "componentType": 5123,
   "count": 1824,
   "type": "SCALAR"
  }
 ]
}
