{
 "asset": {
  "version": "2.0",
  "generator": "kindjal make_meshes.py"
 },
 "scene": 0,
 "scenes": [
  {
   "nodes": [
    0
   ]
  }
 ],
 "nodes": [
  {
   "name": "Crucible",
   "mesh": 0
  }
 ],
 "meshes": [
  {
   "name": "Crucible",
   "primitives": [
    {
     "attributes": {
      "POSITION": 0,
      "NORMAL": 1,
      "TEXCOORD_0": 2
     },
     "indices": 3,
     "material": 0,
     "mode": 4
    }
   ]
  }
 ],
 "materials": [
  {
   "name": "Crucible",
   "pbrMetallicRoughness": {
    "baseColorTexture": {
     "index": 0
    },
    "metallicFactor": 0.0,
    "roughnessFactor": 1.0
   }
  }
 ],
 "textures": [
  {
   "sampler": 0,
   "source": 0
  }
 ],
 "samplers": [
  {
   "magFilter": 9729,
   "minFilter": 9987,
   "wrapS": 10497,
   "wrapT": 10497
  }
 ],
 "images": [
  {
   "uri": "crucible.png"
  }
 ],
 "buffers": [
  {
   "uri": "crucible.bin",
   "byteLength": 19040
  }
 ],
 "bufferViews": [
  {
   "buffer": 0,
   "byteOffset": 0,
   "byteLength": 5520,
   "target": 34962
  },
  {
   "buffer": 0,
   "byteOffset": 5520,
   "byteLength": 5520,
   "target": 34962
  },
  {
   "buffer": 0,
   "byteOffset": 11040,
   "byteLength": 3680,
   "target": 34962
  },
  {
   "buffer": 0,
   "byteOffset": 14720,
   "byteLength": 4320,
   "target": 34963
  }
 ],
 "accessors": [
  {
   "bufferView": 0,
   "componentType": 5126,
   "count": 460,
   "type": "VEC3",
   "min": [
    -5.037500858306885,
    -5.055599212646484,
    -7.024096965789795
   ],
   "max": [
    4.938187599182129,
    5.246608257293701,
    6.800000190734863
   ]
  },
  {
   "bufferView": 1,
   "componentType": 5126,
   "count": 460,
   "type": "VEC3"
  },
  {
   "bufferView": 2,
   "componentType": 5126,
   "count": 460,
   "type": "VEC2"
  },
  {
   "bufferView": 3,
   "componentType": 5123,
   "count": 2160,
   "type": "SCALAR"
  }
 ]
}
