{
 "asset": {
  "version": "2.0",
  "generator": "kindjal make_meshes.py"
 },
 "scene": 0,
 "scenes": [
  {
   "nodes": [
    0
   ]
  }
 ],
 "nodes": [
  {
   "name": "FieldRadio",
   "mesh": 0
  }
 ],
 "meshes": [
  {
   "name": "FieldRadio",
   "primitives": [
    {
     "attributes": {
      "POSITION": 0,
      "NORMAL": 1,
      "TEXCOORD_0": 2
     },
     "indices": 3,
     "material": 0,
     "mode": 4
    }
   ]
  }
 ],
 "materials": [
  {
   "name": "FieldRadio",
   "pbrMetallicRoughness": {
    "baseColorTexture": {
     "index": 0
    },
    "metallicFactor": 0.0,
    "roughnessFactor": 1.0
   }
  }
 ],
 "textures": [
  {
   "sampler": 0,
   "source": 0
  }
 ],
 "samplers": [
  {
   "magFilter": 9729,
   "minFilter": 9987,
   "wrapS": 10497,
   "wrapT": 10497
  }
 ],
 "images": [
  {
   "uri": "field_radio.png"
  }
 ],
 "buffers": [
  {
   "uri": "field_radio.bin",
   "byteLength": 42644
  }
 ],
 "bufferViews": [
  {
   "buffer": 0,
   "byteOffset": 0,
   "byteLength": 12828,
   "target": 34962
  },
  {
   "buffer": 0,
   "byteOffset": 12828,
   "byteLength": 12828,
   "target": 34962
  },
  {
   "buffer": 0,
   "byteOffset": 25656,
   "byteLength": 8552,
   "target": 34962
  },
  {
   "buffer": 0,
   "byteOffset": 34208,
   "byteLength": 8436,
   "target": 34963
  }
 ],
 "accessors": [
  {
   "bufferView": 0,
   "componentType": 5126,
   "count": 1069,
   "type": "VEC3",
   "min": [
    -3.5299999713897705,
    -7.400000095367432,
    -6.486935615539551
   ],
   "max": [
    4.949999809265137,
    10.842390060424805,
    6.0
   ]
  },
  {
   "bufferView": 1,
   "componentType": 5126,
   "count": 1069,
   "type": "VEC3"
  },
  {
   "bufferView": 2,
   "componentType": 5126,
   "count": 1069,
   "type": "VEC2"
  },
  {
   "bufferView": 3,
   "componentType": 5123,
   "count": 4218,
   "type": "SCALAR"
  }
 ]
}
