{
 "asset": {
  "version": "2.0",
  "generator": "kindjal make_meshes.py"
 },
 "scene": 0,
 "scenes": [
  {
   "nodes": [
    0
   ]
  }
 ],
 "nodes": [
  {
   "name": "InflatedKnifeman",
   "mesh": 0
  }
 ],
 "meshes": [
  {
   "name": "InflatedKnifeman",
   "primitives": [
    {
     "attributes": {
      "POSITION": 0,
      "NORMAL": 1,
      "TEXCOORD_0": 2
     },
     "indices": 3,
     "material": 0,
     "mode": 4
    }
   ]
  }
 ],
 "materials": [
  {
   "name": "InflatedKnifeman",
   "pbrMetallicRoughness": {
    "baseColorTexture": {
     "index": 0
    },
    "metallicFactor": 0.0,
    "roughnessFactor": 1.0
   }
  }
 ],
 "textures": [
  {
   "sampler": 0,
   "source": 0
  }
 ],
 "samplers": [
  {
   "magFilter": 9729,
   "minFilter": 9987,
   "wrapS": 10497,
   "wrapT": 10497
  }
 ],
 "images": [
  {
   "uri": "inflated_knifeman.png"
  }
 ],
 "buffers": [
  {
   "uri": "inflated_knifeman.bin",
   "byteLength": 33168
  }
 ],
 "bufferViews": [
  {
   "buffer": 0,
   "byteOffset": 0,
   "byteLength": 9864,
   "target": 34962
  },
  {
   "buffer": 0,
   "byteOffset": 9864,
   "byteLength": 9864,
   "target": 34962
  },
  {
   "buffer": 0,
   "byteOffset": 19728,
   "byteLength": 6576,
   "target": 34962
  },
  {
   "buffer": 0,
   "byteOffset": 26304,
   "byteLength": 6864,
   "target": 34963
  }
 ],
 "accessors": [
  {
   "bufferView": 0,
   "componentType": 5126,
   "count": 822,
   "type": "VEC3",
   "min": [
    -19.425935745239258,
    -18.1629581451416,
    -15.261628150939941
   ],
   "max": [
    19.000579833984375,
    30.600000381469727,
    15.261628150939941
   ]
  },
  {
   "bufferView": 1,
   "componentType": 5126,
   "count": 822,
   "type": "VEC3"
  },
  {
   "bufferView": 2,
   "componentType": 5126,
   "count": 822,
   "type": "VEC2"
  },
  {
   "bufferView": 3,
   "componentType": 5123,
   "count": 3432,
   "type": "SCALAR"
  }
 ]
}
