{
 "asset": {
  "version": "2.0",
  "generator": "kindjal make_meshes.py"
 },
 "scene": 0,
 "scenes": [
  {
   "nodes": [
    0
   ]
  }
 ],
 "nodes": [
  {
   "name": "PlantainBananas",
   "mesh": 0
  }
 ],
 "meshes": [
  {
   "name": "PlantainBananas",
   "primitives": [
    {
     "attributes": {
      "POSITION": 0,
      "NORMAL": 1,
      "TEXCOORD_0": 2
     },
     "indices": 3,
     "material": 0,
     "mode": 4
    }
   ]
  }
 ],
 "materials": [
  {
   "name": "PlantainBananas",
   "pbrMetallicRoughness": {
    "baseColorTexture": {
     "index": 0
    },
    "metallicFactor": 0.0,
    "roughnessFactor": 1.0
   }
  }
 ],
 "textures": [
  {
   "sampler": 0,
   "source": 0
  }
 ],
 "samplers": [
  {
   "magFilter": 9729,
   "minFilter": 9987,
   "wrapS": 10497,
   "wrapT": 10497
  }
 ],
 "images": [
  {
   "uri": "plantain_bananas.png"
  }
 ],
 "buffers": [
  {
   "uri": "plantain_bananas.bin",
   "byteLength": 29600
  }
 ],
 "bufferViews": [
  {
   "buffer": 0,
   "byteOffset": 0,
   "byteLength": 9264,
   "target": 34962
  },
  {
   "buffer": 0,
   "byteOffset": 9264,
   "byteLength": 9264,
   "target": 34962
  },
  {
   "buffer": 0,
   "byteOffset": 18528,
   "byteLength": 6176,
   "target": 34962
  },
  {
   "buffer": 0,
   "byteOffset": 24704,
   "byteLength": 4896,
   "target": 34963
  }
 ],
 "accessors": [
  {
   "bufferView": 0,
   "componentType": 5126,
   "count": 772,
   "type": "VEC3",
   "min": [
    -3.821254014968872,
    -5.663894176483154,
    -5.130098819732666
   ],
   "max": [
    3.9435949325561523,
    6.4264020919799805,
    7.0838189125061035
   ]
  },
  {
   "bufferView": 1,
   "componentType": 5126,
   "count": 772,
   "type": "VEC3"
  },
  {
   "bufferView": 2,
   "componentType": 5126,
   "count": 772,
   "type": "VEC2"
  },
  {
   "bufferView": 3,
   "componentType": 5123,
   "count": 2448,
   "type": "SCALAR"
  }
 ]
}
