{
 "asset": {
  "version": "2.0",
  "generator": "kindjal make_meshes.py"
 },
 "scene": 0,
 "scenes": [
  {
   "nodes": [
    0
   ]
  }
 ],
 "nodes": [
  {
   "name": "ProfaneGrenade",
   "mesh": 0
  }
 ],
 "meshes": [
  {
   "name": "ProfaneGrenade",
   "primitives": [
    {
     "attributes": {
      "POSITION": 0,
      "NORMAL": 1,
      "TEXCOORD_0": 2
     },
     "indices": 3,
     "material": 0,
     "mode": 4
    }
   ]
  }
 ],
 "materials": [
  {
   "name": "ProfaneGrenade",
   "pbrMetallicRoughness": {
    "baseColorTexture": {
     "index": 0
    },
    "metallicFactor": 0.0,
    "roughnessFactor": 1.0
   }
  }
 ],
 "textures": [
  {
   "sampler": 0,
   "source": 0
  }
 ],
 "samplers": [
  {
   "magFilter": 9729,
   "minFilter": 9987,
   "wrapS": 10497,
   "wrapT": 10497
  }
 ],
 "images": [
  {
   "uri": "profane_grenade.png"
  }
 ],
 "buffers": [
  {
   "uri": "profane_grenade.bin",
   "byteLength": 30000
  }
 ],
 "bufferViews": [
  {
   "buffer": 0,
   "byteOffset": 0,
   "byteLength": 9072,
   "target": 34962
  },
  {
   "buffer": 0,
   "byteOffset": 9072,
   "byteLength": 9072,
   "target": 34962
  },
  {
   "buffer": 0,
   "byteOffset": 18144,
   "byteLength": 6048,
   "target": 34962
  },
  {
   "buffer": 0,
   "byteOffset": 24192,
   "byteLength": 5808,
   "target": 34963
  }
 ],
 "accessors": [
  {
   "bufferView": 0,
   "componentType": 5126,
   "count": 756,
   "type": "VEC3",
   "min": [
    -4.949999809265137,
    -5.4547014236450195,
    -6.849999904632568
   ],
   "max": [
    4.949999809265137,
    5.4547014236450195,
    7.239999771118164
   ]
  },
  {
   "bufferView": 1,
   "componentType": 5126,
   "count": 756,
   "type": "VEC3"
  },
  {
   "bufferView": 2,
   "componentType": 5126,
   "count": 756,
   "type": "VEC2"
  },
  {
   "bufferView": 3,
   "componentType": 5123,
   "count": 2904,
   "type": "SCALAR"
  }
 ]
}
