{
 "asset": {
  "version": "2.0",
  "generator": "kindjal make_meshes.py"
 },
 "scene": 0,
 "scenes": [
  {
   "nodes": [
    0
   ]
  }
 ],
 "nodes": [
  {
   "name": "Railspike",
   "mesh": 0
  }
 ],
 "meshes": [
  {
   "name": "Railspike",
   "primitives": [
    {
     "attributes": {
      "POSITION": 0,
      "NORMAL": 1,
      "TEXCOORD_0": 2
     },
     "indices": 3,
     "material": 0,
     "mode": 4
    }
   ]
  }
 ],
 "materials": [
  {
   "name": "Railspike",
   "pbrMetallicRoughness": {
    "baseColorTexture": {
     "index": 0
    },
    "metallicFactor": 0.0,
    "roughnessFactor": 1.0
   }
  }
 ],
 "textures": [
  {
   "sampler": 0,
   "source": 0
  }
 ],
 "samplers": [
  {
   "magFilter": 9729,
   "minFilter": 9987,
   "wrapS": 10497,
   "wrapT": 10497
  }
 ],
 "images": [
  {
   "uri": "railspike.png"
  }
 ],
 "buffers": [
  {
   "uri": "railspike.bin",
   "byteLength": 57472
  }
 ],
 "bufferViews": [
  {
   "buffer": 0,
   "byteOffset": 0,
   "byteLength": 19572,
   "target": 34962
  },
  {
   "buffer": 0,
   "byteOffset": 19572,
   "byteLength": 19572,
   "target": 34962
  },
  {
   "buffer": 0,
   "byteOffset": 39144,
   "byteLength": 13048,
   "target": 34962
  },
  {
   "buffer": 0,
   "byteOffset": 52192,
   "byteLength": 5280,
   "target": 34963
  }
 ],
 "accessors": [
  {
   "bufferView": 0,
   "componentType": 5126,
   "count": 1631,
   "type": "VEC3",
   "min": [
    -6.0,
    -4.300000190734863,
    -9.0
   ],
   "max": [
    6.0,
    22.799999237060547,
    8.399999618530273
   ]
  },
  {
   "bufferView": 1,
   "componentType": 5126,
   "count": 1631,
   "type": "VEC3"
  },
  {
   "bufferView": 2,
   "componentType": 5126,
   "count": 1631,
   "type": "VEC2"
  },
  {
   "bufferView": 3,
   "componentType": 5123,
   "count": 2640,
   "type": "SCALAR"
  }
 ]
}
