{
 "asset": {
  "version": "2.0",
  "generator": "kindjal make_meshes.py"
 },
 "scene": 0,
 "scenes": [
  {
   "nodes": [
    0
   ]
  }
 ],
 "nodes": [
  {
   "name": "RipperLauncher",
   "mesh": 0
  }
 ],
 "meshes": [
  {
   "name": "RipperLauncher",
   "primitives": [
    {
     "attributes": {
      "POSITION": 0,
      "NORMAL": 1,
      "TEXCOORD_0": 2
     },
     "indices": 3,
     "material": 0,
     "mode": 4
    }
   ]
  }
 ],
 "materials": [
  {
   "name": "RipperLauncher",
   "pbrMetallicRoughness": {
    "baseColorTexture": {
     "index": 0
    },
    "metallicFactor": 0.0,
    "roughnessFactor": 1.0
   }
  }
 ],
 "textures": [
  {
   "sampler": 0,
   "source": 0
  }
 ],
 "samplers": [
  {
   "magFilter": 9729,
   "minFilter": 9987,
   "wrapS": 10497,
   "wrapT": 10497
  }
 ],
 "images": [
  {
   "uri": "ripper_launcher.png"
  }
 ],
 "buffers": [
  {
   "uri": "ripper_launcher.bin",
   "byteLength": 45128
  }
 ],
 "bufferViews": [
  {
   "buffer": 0,
   "byteOffset": 0,
   "byteLength": 14484,
   "target": 34962
  },
  {
   "buffer": 0,
   "byteOffset": 14484,
   "byteLength": 14484,
   "target": 34962
  },
  {
   "buffer": 0,
   "byteOffset": 28968,
   "byteLength": 9656,
   "target": 34962
  },
  {
   "buffer": 0,
   "byteOffset": 38624,
   "byteLength": 6504,
   "target": 34963
  }
 ],
 "accessors": [
  {
   "bufferView": 0,
   "componentType": 5126,
   "count": 1207,
   "type": "VEC3",
   "min": [
    -5.079999923706055,
    -9.57699966430664,
    -9.880000114440918
   ],
   "max": [
    5.079999923706055,
    6.820000171661377,
    14.890000343322754
   ]
  },
  {
   "bufferView": 1,
   "componentType": 5126,
   "count": 1207,
   "type": "VEC3"
  },
  {
   "bufferView": 2,
   "componentType": 5126,
   "count": 1207,
   "type": "VEC2"
  },
  {
   "bufferView": 3,
   "componentType": 5123,
   "count": 3252,
   "type": "SCALAR"
  }
 ]
}
