{
 "asset": {
  "version": "2.0",
  "generator": "kindjal make_meshes.py"
 },
 "scene": 0,
 "scenes": [
  {
   "nodes": [
    0
   ]
  }
 ],
 "nodes": [
  {
   "name": "RipperRocket",
   "mesh": 0
  }
 ],
 "meshes": [
  {
   "name": "RipperRocket",
   "primitives": [
    {
     "attributes": {
      "POSITION": 0,
      "NORMAL": 1,
      "TEXCOORD_0": 2
     },
     "indices": 3,
     "material": 0,
     "mode": 4
    }
   ]
  }
 ],
 "materials": [
  {
   "name": "RipperRocket",
   "pbrMetallicRoughness": {
    "baseColorTexture": {
     "index": 0
    },
    "metallicFactor": 0.0,
    "roughnessFactor": 1.0
   }
  }
 ],
 "textures": [
  {
   "sampler": 0,
   "source": 0
  }
 ],
 "samplers": [
  {
   "magFilter": 9729,
   "minFilter": 9987,
   "wrapS": 10497,
   "wrapT": 10497
  }
 ],
 "images": [
  {
   "uri": "ripper_rocket.png"
  }
 ],
 "buffers": [
  {
   "uri": "ripper_rocket.bin",
   "byteLength": 29152
  }
 ],
 "bufferViews": [
  {
   "buffer": 0,
   "byteOffset": 0,
   "byteLength": 9348,
   "target": 34962
  },
  {
   "buffer": 0,
   "byteOffset": 9348,
   "byteLength": 9348,
   "target": 34962
  },
  {
   "buffer": 0,
   "byteOffset": 18696,
   "byteLength": 6232,
   "target": 34962
  },
  {
   "buffer": 0,
   "byteOffset": 24928,
   "byteLength": 4224,
   "target": 34963
  }
 ],
 "accessors": [
  {
   "bufferView": 0,
   "componentType": 5126,
   "count": 779,
   "type": "VEC3",
   "min": [
    -2.619999885559082,
    -2.619999885559082,
    -3.0769999027252197
   ],
   "max": [
    2.619999885559082,
    2.619999885559082,
    3.61899995803833
   ]
  },
  {
   "bufferView": 1,
   "componentType": 5126,
   "count": 779,
   "type": "VEC3"
  },
  {
   "bufferView": 2,
   "componentType": 5126,
   "count": 779,
   "type": "VEC2"
  },
  {
   "bufferView": 3,
   "componentType": 5123,
   "count": 2112,
   "type": "SCALAR"
  }
 ]
}
