{
 "asset": {
  "version": "2.0",
  "generator": "kindjal make_meshes.py"
 },
 "scene": 0,
 "scenes": [
  {
   "nodes": [
    0
   ]
  }
 ],
 "nodes": [
  {
   "name": "StoneDonkey",
   "mesh": 0
  }
 ],
 "meshes": [
  {
   "name": "StoneDonkey",
   "primitives": [
    {
     "attributes": {
      "POSITION": 0,
      "NORMAL": 1,
      "TEXCOORD_0": 2
     },
     "indices": 3,
     "material": 0,
     "mode": 4
    }
   ]
  }
 ],
 "materials": [
  {
   "name": "StoneDonkey",
   "pbrMetallicRoughness": {
    "baseColorTexture": {
     "index": 0
    },
    "metallicFactor": 0.0,
    "roughnessFactor": 1.0
   }
  }
 ],
 "textures": [
  {
   "sampler": 0,
   "source": 0
  }
 ],
 "samplers": [
  {
   "magFilter": 9729,
   "minFilter": 9987,
   "wrapS": 10497,
   "wrapT": 10497
  }
 ],
 "images": [
  {
   "uri": "stone_donkey.png"
  }
 ],
 "buffers": [
  {
   "uri": "stone_donkey.bin",
   "byteLength": 61300
  }
 ],
 "bufferViews": [
  {
   "buffer": 0,
   "byteOffset": 0,
   "byteLength": 19860,
   "target": 34962
  },
  {
   "buffer": 0,
   "byteOffset": 19860,
   "byteLength": 19860,
   "target": 34962
  },
  {
   "buffer": 0,
   "byteOffset": 39720,
   "byteLength": 13240,
   "target": 34962
  },
  {
   "buffer": 0,
   "byteOffset": 52960,
   "byteLength": 8340,
   "target": 34963
  }
 ],
 "accessors": [
  {
   "bufferView": 0,
   "componentType": 5126,
   "count": 1655,
   "type": "VEC3",
   "min": [
    -42.400001525878906,
    -86.4000015258789,
    -57.70000076293945
   ],
   "max": [
    42.400001525878906,
    81.8245620727539,
    54.13749694824219
   ]
  },
  {
   "bufferView": 1,
   "componentType": 5126,
   "count": 1655,
   "type": "VEC3"
  },
  {
   "bufferView": 2,
   "componentType": 5126,
   "count": 1655,
   "type": "VEC2"
  },
  {
   "bufferView": 3,
   "componentType": 5123,
   "count": 4170,
   "type": "SCALAR"
  }
 ]
}
